<svg id="SvgjsSvg1015" xmlns="http://www.w3.org/2000/svg" version="1.1" xmlns:xlink="http://www.w3.org/1999/xlink" xmlns:svgjs="http://svgjs.com/svgjs" width="30" height="33" viewBox="0 0 30 33"><title>Shape</title><desc>Created with Avocode.</desc><defs id="SvgjsDefs1016"></defs><path id="SvgjsPath1017" d="M972.74 388.67C971.64 384.82 968.45 381.63 964.1800000000001 380.28000000000003C964.49 379.62 964.6700000000001 378.88000000000005 964.6700000000001 378.1C964.6700000000001 375.29 962.4000000000001 373 959.6100000000001 373C956.8200000000002 373 954.5500000000002 375.29 954.5500000000002 378.1C954.5500000000002 378.91 954.7500000000002 379.67 955.0800000000002 380.35C953.6300000000001 380.84000000000003 952.2600000000001 381.54 951.0800000000002 382.43C949.7300000000001 381.73 948.2700000000002 381.74 947.2700000000002 382.48L946.7600000000002 382.87L948.4300000000002 385.12C947.6100000000001 386.28000000000003 947.0100000000002 387.54 946.6600000000002 388.88H945.9600000000002C944.8800000000001 388.88 944.0000000000001 389.77 944.0000000000001 390.86V396.55C944.0000000000001 397.64 944.8800000000001 398.53000000000003 945.9600000000002 398.53000000000003H948.7500000000001C949.5700000000002 399.57000000000005 950.5700000000002 400.48 951.7200000000001 401.25000000000006V403.9100000000001C951.7200000000001 404.7200000000001 952.3000000000002 405.3800000000001 953.0100000000001 405.3800000000001H955.4200000000001C956.1300000000001 405.3800000000001 956.72 404.7200000000001 956.72 403.9100000000001V403.3300000000001C958.5600000000001 403.7100000000001 960.44 403.7400000000001 962.37 403.3900000000001V403.9800000000001C962.37 404.7900000000001 962.95 405.4500000000001 963.67 405.4500000000001H966.0699999999999C966.79 405.4500000000001 967.3699999999999 404.7900000000001 967.3699999999999 403.9800000000001V401.49000000000007C970.9999999999999 399.24000000000007 973.1499999999999 395.57000000000005 973.1499999999999 391.61000000000007C973.1499999999999 390.83941000000004 973.0621599999998 390.0883300000001 972.8961199999999 389.3471400000001C972.9436499999999 389.37011000000007 973.2391799999999 388.3834300000001 972.7399999999999 388.6700000000001ZM959.61 374.28C961.7 374.28 963.41 375.98999999999995 963.41 378.09999999999997C963.41 378.89 963.17 379.61999999999995 962.76 380.22999999999996L962.74 380.25999999999993C962.73 380.2899999999999 962.71 380.30999999999995 962.69 380.3399999999999C962.62 380.43999999999994 962.5400000000001 380.5299999999999 962.46 380.62999999999994C962.44 380.6499999999999 962.4100000000001 380.67999999999995 962.39 380.69999999999993C962.31 380.7899999999999 962.23 380.86999999999995 962.14 380.94999999999993C962.12 380.9699999999999 962.1 380.98999999999995 962.08 380.99999999999994C961.86 381.18999999999994 961.62 381.35999999999996 961.36 381.49999999999994C961.36 381.49999999999994 961.35 381.49999999999994 961.34 381.50999999999993C961.22 381.56999999999994 961.1 381.61999999999995 960.98 381.66999999999996C960.95 381.67999999999995 960.9300000000001 381.68999999999994 960.9 381.69999999999993C960.79 381.73999999999995 960.68 381.7699999999999 960.5699999999999 381.79999999999995C960.54 381.80999999999995 960.51 381.81999999999994 960.4699999999999 381.8299999999999C960.3599999999999 381.8499999999999 960.2599999999999 381.86999999999995 960.1499999999999 381.88999999999993C960.1099999999999 381.88999999999993 960.0799999999998 381.8999999999999 960.0399999999998 381.9099999999999C959.8999999999999 381.9199999999999 959.7599999999999 381.9299999999999 959.6099999999999 381.9299999999999C959.4699999999999 381.9299999999999 959.3199999999999 381.9199999999999 959.18 381.9099999999999C959.15 381.8999999999999 959.12 381.8999999999999 959.0899999999999 381.88999999999993C958.9799999999999 381.87999999999994 958.8599999999999 381.85999999999996 958.7499999999999 381.8299999999999C958.7299999999999 381.81999999999994 958.6999999999999 381.81999999999994 958.6699999999998 381.80999999999995C958.5599999999998 381.78 958.4399999999998 381.73999999999995 958.3199999999998 381.69999999999993C958.3099999999998 381.68999999999994 958.2899999999998 381.68999999999994 958.2699999999999 381.67999999999995C957.7299999999999 381.46999999999997 957.2399999999999 381.13999999999993 956.8399999999999 380.7099999999999C956.8299999999999 380.69999999999993 956.8199999999999 380.68999999999994 956.81 380.67999999999995C956.7199999999999 380.5799999999999 956.63 380.46999999999997 956.55 380.35999999999996C956.53 380.34 956.51 380.30999999999995 956.49 380.28L956.46 380.23999999999995C956.0500000000001 379.62999999999994 955.82 378.88999999999993 955.82 378.09999999999997C955.82 375.98999999999995 957.5200000000001 374.28 959.61 374.28ZM966.41 400.59L966.0699999999999 400.78L966.0999999999999 403.97999999999996C966.0999999999999 404.08 966.0699999999999 404.15 966.05 404.16999999999996L963.6999999999999 404.17999999999995C963.68 404.16999999999996 963.6299999999999 404.09999999999997 963.6299999999999 403.97999999999996V401.80999999999995L962.8599999999999 401.98999999999995C960.5899999999999 402.5199999999999 958.3799999999999 402.46999999999997 956.2399999999999 401.90999999999997L955.4499999999999 401.7V403.90999999999997C955.4499999999999 404.03 955.4 404.09999999999997 955.42 404.09999999999997L953.05 404.10999999999996C953.03 404.09999999999997 952.9799999999999 404.03 952.9799999999999 403.90999999999997V401.15L953.0899999999999 400.62L952.7199999999999 400.38C951.4599999999999 399.6 950.41 398.63 949.5699999999999 397.51L949.3799999999999 397.25H945.9599999999999C945.5799999999999 397.25 945.2599999999999 396.94 945.2599999999999 396.55V390.86C945.2599999999999 390.47 945.5799999999999 390.15000000000003 945.9599999999999 390.15000000000003H947.68L947.78 389.65000000000003C948.0899999999999 388.16 948.75 386.77000000000004 949.72 385.52000000000004L950.02 385.13000000000005L948.61 383.2300000000001C949.23 383.0800000000001 950.0500000000001 383.26000000000005 950.79 383.74000000000007L951.18 383.9800000000001L951.53 383.7000000000001C952.76 382.7000000000001 954.22 381.9300000000001 955.8 381.4500000000001C955.81 381.4600000000001 955.8299999999999 381.4800000000001 955.8399999999999 381.4900000000001C955.9399999999999 381.60000000000014 956.04 381.71000000000015 956.1499999999999 381.8100000000001C956.1699999999998 381.8300000000001 956.1999999999998 381.8600000000001 956.2299999999999 381.8800000000001C956.3299999999999 381.98000000000013 956.4399999999999 382.0700000000001 956.55 382.1600000000001C956.5799999999999 382.18000000000006 956.6099999999999 382.2000000000001 956.63 382.2200000000001C956.68 382.25000000000006 956.73 382.2900000000001 956.78 382.3300000000001C955.9499999999999 382.5400000000001 955.15 382.8300000000001 954.4 383.2200000000001C954.09 383.3800000000001 953.9599999999999 383.7600000000001 954.12 384.0700000000001C954.28 384.3900000000001 954.66 384.5100000000001 954.97 384.3500000000001C956.4100000000001 383.62000000000006 958.0600000000001 383.2300000000001 959.73 383.2300000000001C961.49 383.2300000000001 963.22 383.6600000000001 964.71 384.4700000000001C964.8100000000001 384.5200000000001 964.9100000000001 384.55000000000007 965.01 384.55000000000007C965.23 384.55000000000007 965.45 384.43000000000006 965.5699999999999 384.2100000000001C965.7299999999999 383.9000000000001 965.6199999999999 383.5200000000001 965.31 383.3500000000001C964.4399999999999 382.87000000000006 963.4899999999999 382.5200000000001 962.51 382.2800000000001C962.54 382.2600000000001 962.5699999999999 382.2300000000001 962.6 382.2100000000001C962.64 382.1800000000001 962.69 382.1500000000001 962.73 382.1200000000001C962.83 382.04000000000013 962.9200000000001 381.9600000000001 963.01 381.8700000000001C963.05 381.84000000000015 963.09 381.8000000000001 963.13 381.7700000000001C963.23 381.6700000000001 963.33 381.5600000000001 963.42 381.4600000000001C963.4399999999999 381.4300000000001 963.4599999999999 381.4200000000001 963.4799999999999 381.3900000000001C968.4499999999999 382.8200000000001 971.8899999999999 386.9700000000001 971.8899999999999 391.6100000000001C971.8899999999999 395.23000000000013 969.8399999999999 398.58000000000015 966.4099999999999 400.59000000000015ZM952.71 389.49C952.71 390.08 952.24 390.55 951.6600000000001 390.55C951.08 390.55 950.6100000000001 390.08 950.6100000000001 389.49C950.6100000000001 388.90000000000003 951.0800000000002 388.43 951.6600000000001 388.43C952.2400000000001 388.43 952.71 388.90000000000003 952.71 389.49Z " fill="#ffffff" fill-opacity="1" transform="matrix(1,0,0,1,-944,-373)"></path></svg>