<svg id="SvgjsSvg1008" xmlns="http://www.w3.org/2000/svg" version="1.1" xmlns:xlink="http://www.w3.org/1999/xlink" xmlns:svgjs="http://svgjs.com/svgjs" width="29" height="37" viewBox="0 0 29 37"><title>Shape</title><desc>Created with Avocode.</desc><defs id="SvgjsDefs1009"></defs><path id="SvgjsPath1010" d="M342.7 381.91C342.2 380.07000000000005 341.5 378.19 340.61 376.26000000000005V372.81000000000006C340.61 371.7800000000001 339.82 371.00000000000006 338.78000000000003 371.00000000000006H319.89000000000004C318.85 371.00000000000006 318.06000000000006 371.78000000000003 318.06000000000006 372.81000000000006V376.31000000000006C313.9800000000001 384.75000000000006 313.9800000000001 392.4100000000001 318.06000000000006 401.87000000000006V405.37000000000006C318.06000000000006 406.40000000000003 318.8500000000001 407.18000000000006 319.89000000000004 407.18000000000006H338.78000000000003C339.82000000000005 407.18000000000006 340.61 406.4000000000001 340.61 405.37000000000006V401.87000000000006C343.81 394.75000000000006 344.5 388.51000000000005 342.7 381.9100000000001ZM318.01 398.4C317.99 398.34999999999997 317.98 398.28999999999996 317.96 398.23999999999995C317.93 398.15 317.9 398.05999999999995 317.87 397.96999999999997C317.86 397.94 317.85 397.90999999999997 317.83 397.86999999999995C317.8 397.7699999999999 317.77 397.66999999999996 317.74 397.56999999999994C317.73 397.54999999999995 317.72 397.5299999999999 317.72 397.5199999999999C317.41 396.5499999999999 317.15000000000003 395.5999999999999 316.94000000000005 394.6599999999999C316.94000000000005 394.6499999999999 316.93000000000006 394.62999999999994 316.93000000000006 394.6099999999999C316.9100000000001 394.5199999999999 316.89000000000004 394.4199999999999 316.87000000000006 394.3199999999999C316.86000000000007 394.2899999999999 316.8500000000001 394.2599999999999 316.8500000000001 394.2299999999999C316.8300000000001 394.1499999999999 316.81000000000006 394.0599999999999 316.7900000000001 393.9699999999999C316.7800000000001 393.9299999999999 316.7800000000001 393.88999999999993 316.7700000000001 393.8499999999999C316.7500000000001 393.7699999999999 316.7400000000001 393.6899999999999 316.7200000000001 393.6099999999999C316.7100000000001 393.5599999999999 316.7000000000001 393.5199999999999 316.7000000000001 393.4699999999999C316.6800000000001 393.38999999999993 316.67000000000013 393.31999999999994 316.6600000000001 393.2499999999999C316.6500000000001 393.1899999999999 316.6400000000001 393.1299999999999 316.6300000000001 393.0699999999999C316.6200000000001 393.0099999999999 316.60000000000014 392.9499999999999 316.5900000000001 392.8899999999999C316.5800000000001 392.7999999999999 316.5700000000001 392.71999999999986 316.5600000000001 392.6399999999999C316.5500000000001 392.59999999999985 316.54000000000013 392.5599999999999 316.54000000000013 392.51999999999987C316.5000000000001 392.26999999999987 316.47000000000014 392.01999999999987 316.4400000000001 391.76999999999987C316.4300000000001 391.7499999999999 316.4300000000001 391.72999999999985 316.4300000000001 391.70999999999987C316.42000000000013 391.60999999999984 316.41000000000014 391.4999999999999 316.3900000000001 391.39999999999986C316.3900000000001 391.3699999999999 316.3900000000001 391.33999999999986 316.3900000000001 391.3199999999999C316.3800000000001 391.21999999999986 316.3700000000001 391.1199999999999 316.3600000000001 391.01999999999987C316.35000000000014 390.9899999999999 316.35000000000014 390.96999999999986 316.35000000000014 390.9399999999999C316.34000000000015 390.83999999999986 316.33000000000015 390.7399999999999 316.33000000000015 390.64999999999986C316.32000000000016 390.6199999999999 316.32000000000016 390.58999999999986 316.32000000000016 390.5599999999999C316.3100000000002 390.4699999999999 316.3100000000002 390.3699999999999 316.3000000000002 390.26999999999987C316.3000000000002 390.2499999999999 316.3000000000002 390.21999999999986 316.2900000000002 390.1899999999999C316.2900000000002 390.08999999999986 316.2800000000002 389.9899999999999 316.2800000000002 389.89999999999986C316.2800000000002 389.8699999999999 316.2800000000002 389.83999999999986 316.2700000000002 389.8199999999999C316.2700000000002 389.71999999999986 316.2700000000002 389.6199999999999 316.2600000000002 389.51999999999987C316.2600000000002 389.4899999999999 316.2600000000002 389.46999999999986 316.2600000000002 389.4499999999999C316.2600000000002 389.33999999999986 316.2500000000002 389.22999999999985 316.2500000000002 389.1199999999999C316.2500000000002 389.1099999999999 316.2500000000002 389.0899999999999 316.2500000000002 389.07999999999987C316.2500000000002 388.9499999999999 316.2500000000002 388.82999999999987 316.2500000000002 388.70999999999987C316.2500000000002 388.6799999999999 316.2500000000002 388.65999999999985 316.2500000000002 388.6299999999999C316.2500000000002 388.5399999999999 316.2500000000002 388.4499999999999 316.2500000000002 388.3599999999999C316.2500000000002 388.2899999999999 316.2500000000002 388.2199999999999 316.2600000000002 388.1499999999999C316.2600000000002 388.0999999999999 316.2600000000002 388.05999999999995 316.2600000000002 388.00999999999993C316.2600000000002 387.92999999999995 316.2700000000002 387.8399999999999 316.2700000000002 387.74999999999994C316.2700000000002 387.72999999999996 316.2700000000002 387.69999999999993 316.2700000000002 387.66999999999996C316.2800000000002 387.56999999999994 316.2800000000002 387.47999999999996 316.2900000000002 387.37999999999994C316.2900000000002 387.36999999999995 316.2900000000002 387.34999999999997 316.2900000000002 387.3399999999999C316.4700000000002 384.18999999999994 317.2600000000002 381.0899999999999 318.6700000000002 377.8699999999999C321.9000000000002 385.5299999999999 321.9000000000002 392.3499999999999 318.6700000000002 400.1799999999999C318.51000000000016 399.7799999999999 318.3600000000002 399.3699999999999 318.2200000000002 398.9799999999999C318.2100000000002 398.94999999999993 318.2000000000002 398.9299999999999 318.1900000000002 398.9099999999999C318.1500000000002 398.8099999999999 318.12000000000023 398.69999999999993 318.0800000000002 398.5999999999999C318.06000000000023 398.5399999999999 318.0400000000002 398.4699999999999 318.0100000000002 398.3999999999999ZM319.63 377.03H339.06C335.43 385.01 335.44 392.32 339.1 401.15H319.57000000000005C323.2300000000001 392.63 323.25000000000006 385.32 319.63000000000005 377.03ZM342.42 389.12C342.42 389.18 342.42 389.25 342.42 389.31C342.42 389.41 342.42 389.5 342.42 389.6C342.42 389.62 342.42 389.64000000000004 342.42 389.65000000000003C342.41 389.76000000000005 342.41 389.88000000000005 342.40000000000003 389.99C342.27000000000004 393.29 341.47 396.63 340.00000000000006 400.19C336.77000000000004 391.99 336.77000000000004 385.24 340.00000000000006 377.89C341.61000000000007 381.71 342.4200000000001 385.33 342.4200000000001 388.96999999999997C342.4200000000001 389.02 342.4200000000001 389.07 342.4200000000001 389.11999999999995ZM319.28 372.81C319.28 372.45 319.59 372.21 319.89 372.21H338.78C339.15 372.21 339.39 372.45 339.39 372.81V375.82H319.28ZM339.39 405.37C339.39 405.73 339.15 405.97 338.78 405.97H319.89C319.53 405.97 319.28 405.73 319.28 405.37V402.36H339.39Z " fill="#ffffff" fill-opacity="1" transform="matrix(1,0,0,1,-315,-371)"></path><path id="SvgjsPath1011" d="M333.99 385.04C333.83 384.98 333.69 384.99 333.56 385.04H332.72C327.90000000000003 385.04 324 388.90000000000003 324 393.66V394.69C324 395.03 324.22 395.26 324.55 395.29C324.57 395.29 324.59000000000003 395.29 324.61 395.29H325.65000000000003C330.46000000000004 395.29 334.36 391.43 334.36 386.67V385.82C334.48 385.46 334.3 385.15999999999997 333.99 385.04ZM332.72 386.24H332.90000000000003C332.18 388 331.13000000000005 389.18 328.75000000000006 389.86C327.1600000000001 390.29 326.20000000000005 390.8 325.55000000000007 391.48C326.49000000000007 388.45000000000005 329.3400000000001 386.24 332.7200000000001 386.24ZM325.65 394.08H325.47999999999996C326.08 392.38 326.65999999999997 391.69 329.05999999999995 391.01C330.8299999999999 390.52 331.99999999999994 389.77 332.8299999999999 388.8C331.8999999999999 391.86 329.0399999999999 394.08 325.6499999999999 394.08Z " fill="#ffffff" fill-opacity="1" transform="matrix(1,0,0,1,-315,-371)"></path></svg>