<svg id="SvgjsSvg1012" xmlns="http://www.w3.org/2000/svg" version="1.1" xmlns:xlink="http://www.w3.org/1999/xlink" xmlns:svgjs="http://svgjs.com/svgjs" width="38" height="25" viewBox="0 0 38 25"><title>Shape</title><desc>Created with Avocode.</desc><defs id="SvgjsDefs1013"></defs><path id="SvgjsPath1014" d="M760.45 398.63C760.45 400.48 758.9100000000001 401.99 757.01 401.99C756.08 401.99 755.21 401.63 754.54 401C753.87 400.36 753.5 399.52 753.5 398.63C753.5 397.73 753.87 396.9 754.54 396.25C755.1999999999999 395.62 756.0799999999999 395.27 757.01 395.27C758.91 395.27 760.45 396.78 760.45 398.63ZM758.91 398.63C758.91 397.6 758.06 396.76 757.01 396.76C755.9399999999999 396.76 755.05 397.61 755.05 398.63C755.05 399.64 755.9399999999999 400.49 757.01 400.49C758.06 400.49 758.91 399.66 758.91 398.63ZM760.23 386.1C760.39 386.25 760.49 386.45000000000005 760.49 386.66V390.75C760.49 391.16 760.14 391.5 759.71 391.5H753.4300000000001C753.0000000000001 391.5 752.6500000000001 391.16 752.6500000000001 390.75V384.63C752.6500000000001 384.21999999999997 753.0000000000001 383.89 753.4300000000001 383.89H757.3900000000001C757.5800000000002 383.89 757.7700000000001 383.96 757.9100000000001 384.08ZM758.94 386.99L757.09 385.37H754.2V390.01H758.94ZM741.59 398.63C741.59 400.48 740.0500000000001 401.99 738.15 401.99C737.22 401.99 736.35 401.63 735.68 401C735.01 400.36 734.64 399.52 734.64 398.63C734.64 397.73 735.01 396.9 735.68 396.25C736.3399999999999 395.62 737.2199999999999 395.27 738.15 395.27C740.05 395.27 741.59 396.78 741.59 398.63ZM740.05 398.63C740.05 397.6 739.1999999999999 396.76 738.15 396.76C737.0799999999999 396.76 736.1899999999999 397.61 736.1899999999999 398.63C736.1899999999999 399.64 737.0799999999999 400.49 738.15 400.49C739.1999999999999 400.49 740.05 399.66 740.05 398.63ZM733.77 396.93C733.77 397.34000000000003 733.42 397.68 733 397.68H730.67C730.25 397.68 729.9 397.34000000000003 729.9 396.93V394.2C729.9 393.78999999999996 730.25 393.46 730.67 393.46C731.0999999999999 393.46 731.4499999999999 393.78999999999996 731.4499999999999 394.2V396.19H732.9999999999999C733.4199999999998 396.19 733.7699999999999 396.52 733.7699999999999 396.93ZM736.14 392.87H726.77C726.35 392.87 726 392.53000000000003 726 392.12C726 391.71 726.35 391.37 726.77 391.37H736.14C736.5699999999999 391.37 736.91 391.71 736.91 392.12C736.91 392.54 736.5699999999999 392.87 736.14 392.87ZM727.58 388.67C727.58 388.26 727.9200000000001 387.93 728.35 387.93C728.35 387.93 728.35 387.93 728.36 387.93L737.72 387.99C738.15 387.99 738.5 388.32 738.49 388.74C738.48 389.15000000000003 738.13 389.48 737.71 389.48L728.34 389.43C727.9200000000001 389.43 727.57 389.09000000000003 727.58 388.67ZM729.14 385.29C729.14 384.88 729.49 384.54 729.92 384.54H739.28C739.7099999999999 384.54 740.06 384.88 740.06 385.29C740.06 385.70000000000005 739.7099999999999 386.04 739.28 386.04H729.92C729.49 386.04 729.14 385.70000000000005 729.14 385.29ZM763.64 385.03L758.11 380.59999999999997C757.98 380.48999999999995 757.8100000000001 380.42999999999995 757.62 380.42999999999995H751.12V377.74999999999994C751.12 377.3399999999999 750.77 376.99999999999994 750.34 376.99999999999994H730.6700000000001C730.2500000000001 376.99999999999994 729.9000000000001 377.3399999999999 729.9000000000001 377.74999999999994V383.2099999999999C729.9000000000001 383.61999999999995 730.2500000000001 383.9599999999999 730.6700000000001 383.9599999999999C731.1 383.9599999999999 731.45 383.61999999999995 731.45 383.2099999999999V378.4899999999999H749.58V396.1899999999999H743.25C742.82 396.1899999999999 742.47 396.51999999999987 742.47 396.9299999999999C742.47 397.3399999999999 742.82 397.6799999999999 743.25 397.6799999999999H752.68C753.0999999999999 397.6799999999999 753.4499999999999 397.3399999999999 753.4499999999999 396.9299999999999C753.4499999999999 396.51999999999987 753.0999999999999 396.1899999999999 752.68 396.1899999999999H751.12V381.9299999999999H757.35L762.39 385.95999999999987L762.33 396.16999999999985H761.5300000000001C761.1000000000001 396.16999999999985 760.7600000000001 396.5099999999998 760.7600000000001 396.91999999999985C760.7600000000001 397.32999999999987 761.1000000000001 397.65999999999985 761.5300000000001 397.65999999999985H763.1000000000001C763.5200000000001 397.65999999999985 763.8700000000001 397.33999999999986 763.8700000000001 396.92999999999984L763.9300000000001 385.60999999999984C763.9200000000001 385.3899999999998 763.82 385.16999999999985 763.6400000000001 385.02999999999986Z " fill="#ffffff" fill-opacity="1" transform="matrix(1,0,0,1,-726,-377)"></path></svg>