<svg id="SvgjsSvg1000" xmlns="http://www.w3.org/2000/svg" version="1.1" xmlns:xlink="http://www.w3.org/1999/xlink" xmlns:svgjs="http://svgjs.com/svgjs" width="25" height="37" viewBox="0 0 25 37"><title>Shape</title><desc>Created with Avocode.</desc><defs id="SvgjsDefs1001"></defs><path id="SvgjsPath1007" d="M547.81 394.41C547.79 391.11 544.78 386.37 541.8699999999999 381.78000000000003C541.6199999999999 381.39000000000004 541.3799999999999 381.00000000000006 541.1399999999999 380.62C541.1299999999999 380.61 541.1299999999999 380.61 541.1299999999999 380.61C538.2799999999999 376.26 536.3199999999999 373.02000000000004 536.0399999999998 372.49C536.0299999999999 372.46000000000004 536.0199999999999 372.43 535.9999999999999 372.39C535.8899999999999 372.15999999999997 535.6699999999998 372.01 535.4299999999998 372C535.1699999999998 371.99 534.9299999999998 372.14 534.8099999999998 372.39C534.7999999999998 372.43 534.7799999999999 372.46 534.7699999999999 372.49C534.4899999999999 373.02 532.5299999999999 376.26 529.6899999999998 380.61C529.6799999999998 380.61 529.6799999999998 380.61 529.6799999999998 380.62C529.4399999999998 381 529.1899999999998 381.39 528.9399999999998 381.78000000000003C526.0299999999999 386.37 523.0199999999999 391.11 523.0099999999999 394.41C522.9099999999999 397.5 524.0199999999999 400.52000000000004 526.1299999999999 402.91C528.5199999999999 405.62 531.9899999999999 407.24 535.3999999999999 407.24C535.4099999999999 407.24 535.4099999999999 407.24 535.4099999999999 407.24C538.8299999999998 407.24 542.2899999999998 405.62 544.6899999999998 402.91C546.7899999999998 400.52000000000004 547.8999999999999 397.5 547.8099999999998 394.41ZM534.23 405.63C532.09 405.17 530.6700000000001 404.13 529.99 402.53C528.74 399.54999999999995 530.24 395.29999999999995 531.04 393.41999999999996C532.63 395.61999999999995 532.8299999999999 397.34 532.8299999999999 397.34999999999997C532.8599999999999 397.65999999999997 533.0699999999999 397.91999999999996 533.3399999999999 397.98999999999995C533.6199999999999 398.06999999999994 533.91 397.93999999999994 534.06 397.67999999999995C535.93 394.54999999999995 536.42 390.42999999999995 536.54 388.09C540.89 393.31 542.3199999999999 398.11999999999995 540.5699999999999 401.71999999999997C539.14 404.67999999999995 535.91 405.98999999999995 534.2299999999999 405.63ZM543.72 401.88C542.74 402.99 541.5600000000001 403.9 540.28 404.55C540.88 403.92 541.38 403.2 541.76 402.41C542.75 400.37 542.91 397.92 542.21 395.35C541.4000000000001 392.35 539.4300000000001 389.12 536.37 385.77000000000004C536.18 385.55 535.88 385.49000000000007 535.63 385.61C535.38 385.73 535.22 386.01 535.23 386.31C535.23 386.37 535.36 391.38 533.6800000000001 395.39C533.2900000000001 394.38 532.6 393.03999999999996 531.3800000000001 391.59999999999997C531.2300000000001 391.42999999999995 531.0200000000001 391.34 530.8100000000001 391.36999999999995C530.6 391.3999999999999 530.4100000000001 391.53 530.3000000000001 391.73999999999995C530.1600000000001 392.00999999999993 526.84 398.53999999999996 528.7700000000001 403.13999999999993C528.8400000000001 403.29999999999995 528.9100000000001 403.44999999999993 528.9800000000001 403.5999999999999C528.3000000000002 403.0999999999999 527.6600000000001 402.5299999999999 527.1000000000001 401.8799999999999C525.2400000000001 399.77999999999986 524.2700000000001 397.1399999999999 524.3500000000001 394.4499999999999C524.3500000000001 394.4399999999999 524.3500000000001 394.4299999999999 524.3500000000001 394.4299999999999C524.3600000000001 391.5899999999999 527.3800000000001 386.8199999999999 530.0500000000002 382.6199999999999C530.2900000000002 382.2299999999999 530.5400000000002 381.8399999999999 530.7800000000002 381.45999999999987C532.5400000000002 378.77999999999986 533.8700000000002 376.64999999999986 534.5100000000002 375.6199999999999C534.8500000000003 375.0599999999999 535.1600000000002 374.5499999999999 535.4100000000002 374.1399999999999C535.6500000000002 374.5499999999999 535.9600000000002 375.0599999999999 536.3100000000002 375.6199999999999C536.9500000000002 376.64999999999986 538.2800000000002 378.7799999999999 540.0300000000002 381.45999999999987C540.2700000000002 381.83999999999986 540.5200000000002 382.22999999999985 540.7700000000002 382.6199999999999C543.4300000000002 386.8199999999999 546.4500000000002 391.5899999999999 546.4700000000003 394.4299999999999C546.4700000000003 394.4299999999999 546.4700000000003 394.4399999999999 546.4700000000003 394.4499999999999C546.5500000000003 397.1399999999999 545.5700000000003 399.77999999999986 543.7200000000003 401.8799999999999Z " fill="#ffffff" fill-opacity="1" transform="matrix(1,0,0,1,-523,-371)"></path></svg>